<?xml version="1.0" ?><svg id="Capa_1" style="enable-background:new 0 0 100 100;" version="1.1" viewBox="0 0 100 100" xml:space="preserve" xmlns="http://www.w3.org/2000/svg" xmlns:xlink="http://www.w3.org/1999/xlink"><path d="M70,34.33H30c-0.55,0-1-0.45-1-1s0.45-1,1-1h40c0.55,0,1,0.45,1,1S70.55,34.33,70,34.33z"/><path d="M70,51H30c-0.55,0-1-0.45-1-1s0.45-1,1-1h40c0.55,0,1,0.45,1,1S70.55,51,70,51z"/><path d="M70,67.67H30c-0.55,0-1-0.45-1-1s0.45-1,1-1h40c0.55,0,1,0.45,1,1S70.55,67.67,70,67.67z"/></svg>